<?xml version="1.0" encoding="UTF-8" standalone="no"?>
<!DOCTYPE svg PUBLIC "-//W3C//DTD SVG 1.1//EN" "http://www.w3.org/Graphics/SVG/1.1/DTD/svg11.dtd">
<svg width="100%" height="100%" viewBox="0 0 101 101" version="1.1" xmlns="http://www.w3.org/2000/svg" xmlns:xlink="http://www.w3.org/1999/xlink" xml:space="preserve" xmlns:serif="http://www.serif.com/" style="fill-rule:evenodd;clip-rule:evenodd;stroke-linejoin:round;stroke-miterlimit:2;">
    <g transform="matrix(1,0,0,1,-14735,-8402)">
        <g transform="matrix(1,0,0,1,13992.6,8057.17)">
            <g transform="matrix(4.31286,0,0,4.31286,741.138,343.68)">
                <g id="icon-add">
                    <path d="M12,19.138C11.681,19.138 11.411,19.028 11.192,18.808C10.972,18.589 10.862,18.319 10.863,18L10.863,13.137L6,13.137C5.681,13.137 5.411,13.028 5.192,12.808C4.972,12.589 4.863,12.319 4.863,12C4.863,11.681 4.972,11.411 5.192,11.192C5.411,10.972 5.681,10.862 6,10.862L10.863,10.862L10.863,6C10.863,5.681 10.972,5.411 11.192,5.192C11.411,4.972 11.681,4.863 12,4.863C12.319,4.863 12.589,4.972 12.808,5.192C13.028,5.411 13.138,5.681 13.138,6L13.138,10.862L18,10.862C18.319,10.862 18.589,10.972 18.808,11.192C19.028,11.411 19.138,11.681 19.138,12C19.138,12.319 19.028,12.589 18.808,12.808C18.589,13.028 18.319,13.138 18,13.137L13.138,13.137L13.138,18C13.138,18.319 13.028,18.589 12.808,18.808C12.589,19.028 12.319,19.138 12,19.138Z" style="fill-rule:nonzero;"/>
                </g>
            </g>
        </g>
    </g>
</svg>
