<?xml version="1.0" encoding="UTF-8" standalone="no"?>
<!DOCTYPE svg PUBLIC "-//W3C//DTD SVG 1.1//EN" "http://www.w3.org/Graphics/SVG/1.1/DTD/svg11.dtd">
<svg width="100%" height="100%" viewBox="0 0 100 74" version="1.1" xmlns="http://www.w3.org/2000/svg" xmlns:xlink="http://www.w3.org/1999/xlink" xml:space="preserve" xmlns:serif="http://www.serif.com/" style="fill-rule:evenodd;clip-rule:evenodd;stroke-linejoin:round;stroke-miterlimit:2;">
    <g id="icon-logo-compact">
        <path id="right-circle" d="M77.996,44.37C73.028,44.37 68.996,48.817 68.996,54.296C68.996,59.774 73.028,64.221 77.996,64.221C82.963,64.221 86.996,59.774 86.996,54.296C86.996,48.817 82.963,44.37 77.996,44.37ZM81.255,51.13C79.459,51.13 78.002,52.872 78.002,55.018C78.002,57.164 79.459,58.906 81.255,58.906C83.05,58.906 84.508,57.164 84.508,55.018C84.508,52.872 83.05,51.13 81.255,51.13Z"/>
        <path d="M0.886,54.766C0.886,65.703 10.7,73.809 22.468,73.809C34.235,73.809 44.001,65.703 44.001,54.766L44.001,45.586C45.759,45 47.907,44.659 50.056,44.659C52.497,44.659 54.499,44.805 56.11,45.293L56.11,54.766C56.11,65.703 65.827,73.809 77.644,73.809C89.411,73.809 99.225,65.703 99.225,54.766C99.225,51.885 98.835,49.151 97.175,45.342L81.55,8.477C79.353,3.35 74.616,0.371 68.659,0.371C61.091,0.371 56.11,5.205 56.11,12.432L56.11,15.362C54.304,15.02 52.302,14.825 50.056,14.825C47.956,14.825 45.905,15.117 44.001,15.606L44.001,12.432C44.001,5.205 38.972,0.371 31.452,0.371C25.446,0.371 20.71,3.35 18.513,8.477L2.937,45.342C1.276,49.151 0.886,51.885 0.886,54.766ZM59.784,56.66C61.752,68.089 72.076,72.297 81.238,70.764C90.4,69.232 98.4,61.958 95.721,50.423C90.907,29.745 58.482,35.467 59.784,56.66ZM4.526,56.66C6.494,68.089 16.818,72.297 25.98,70.764C35.142,69.232 43.142,61.958 40.463,50.423C35.649,29.745 3.224,35.467 4.526,56.66ZM44.001,33.526L44.001,27.715C45.905,27.178 47.956,26.934 50.056,26.934C52.302,26.934 54.304,27.08 56.11,27.471L56.11,33.233C54.499,32.744 52.546,32.549 50.056,32.549C47.907,32.549 45.759,32.94 44.001,33.526Z"/>
        <path id="left-circle" d="M22.738,44.37C17.77,44.37 13.738,48.817 13.738,54.296C13.738,59.774 17.77,64.221 22.738,64.221C27.705,64.221 31.738,59.774 31.738,54.296C31.738,48.817 27.705,44.37 22.738,44.37ZM25.994,51.122C24.197,51.122 22.738,52.866 22.738,55.014C22.738,57.162 24.197,58.906 25.994,58.906C27.791,58.906 29.25,57.162 29.25,55.014C29.25,52.866 27.791,51.122 25.994,51.122Z"/>
    </g>
</svg>
