<?xml version="1.0" encoding="UTF-8" standalone="no"?>
<!DOCTYPE svg PUBLIC "-//W3C//DTD SVG 1.1//EN" "http://www.w3.org/Graphics/SVG/1.1/DTD/svg11.dtd">
<svg width="100%" height="100%" viewBox="0 0 161 138" version="1.1" xmlns="http://www.w3.org/2000/svg" xmlns:xlink="http://www.w3.org/1999/xlink" xml:space="preserve" xmlns:serif="http://www.serif.com/" style="fill-rule:evenodd;clip-rule:evenodd;stroke-linejoin:round;stroke-miterlimit:2;">
    <g transform="matrix(1,0,0,1,-15761,-9995)">
        <g transform="matrix(1,0,0,1,13992.6,7972.17)">
            <g id="icon-interpersonal-solid" transform="matrix(0.268549,0,0,0.268549,1762.61,2023.01)">
                <path d="M64,64C64,28.891 92.891,0 128,0C163.109,-0 192,28.891 192,64C192,99.109 163.109,128 128,128C92.891,128 64,99.109 64,64ZM25.9,233.4C29.3,191.9 64,160 105.6,160L150.4,160C177.4,160 201.4,173.4 215.9,194.1C213.2,196 210.7,198.1 208.4,200.4L144.4,264.4C122.5,286.3 122.5,321.7 144.4,343.6L192,391.2L192,464C192,490.5 170.5,512 144,512L112,512C85.5,512 64,490.5 64,464L64,348.3C37.5,338.8 19.3,312.5 21.8,282.7L25.9,233.4ZM448,64C448,28.891 476.891,0 512,0C547.109,-0 576,28.891 576,64C576,99.109 547.109,128 512,128C476.891,128 448,99.109 448,64ZM431.6,200.4C429.3,198.1 426.7,196 424.1,194.1C438.6,173.4 462.7,160 489.6,160L534.4,160C576,160 610.7,191.9 614.1,233.4L618.2,282.7C620.7,312.5 602.5,338.8 576,348.3L576,464C576,490.5 554.5,512 528,512L496,512C469.5,512 448,490.5 448,464L448,391.2L495.6,343.6C517.5,321.7 517.5,286.3 495.6,264.4L431.6,200.4ZM272,240L272,272L368,272L368,240C368,230.3 373.8,221.5 382.8,217.8C391.8,214.1 402.1,216.1 409,223L473,287C482.4,296.4 482.4,311.6 473,320.9L409,384.9C402.1,391.8 391.8,393.8 382.8,390.1C373.8,386.4 368,377.6 368,367.9L368,336L272,336L272,368C272,377.7 266.2,386.5 257.2,390.2C248.2,393.9 237.9,391.9 231,385L167,321C157.6,311.6 157.6,296.4 167,287.1L231,223.1C237.9,216.2 248.2,214.2 257.2,217.9C266.2,221.6 272,230.4 272,240.1L272,240Z"/>
            </g>
        </g>
    </g>
</svg>
