<?xml version="1.0" encoding="UTF-8" standalone="no"?>
<!DOCTYPE svg PUBLIC "-//W3C//DTD SVG 1.1//EN" "http://www.w3.org/Graphics/SVG/1.1/DTD/svg11.dtd">
<svg width="100%" height="100%" viewBox="0 0 204 204" version="1.1" xmlns="http://www.w3.org/2000/svg" xmlns:xlink="http://www.w3.org/1999/xlink" xml:space="preserve" xmlns:serif="http://www.serif.com/" style="fill-rule:evenodd;clip-rule:evenodd;">
    <g transform="matrix(1,0,0,1,-14740,-9281)">
        <g transform="matrix(1,0,0,1,13992.6,8057.17)">
            <g transform="matrix(1,0,0,1,-13992.6,-8057.17)">
                <g id="icon-allocative">
                    <path d="M14777,9483L14907,9483C14930.5,9483 14942,9471.47 14942,9448.41L14942,9317.45C14942,9294.39 14930.5,9282.86 14907,9282.86L14777,9282.86C14753.7,9282.86 14742,9294.39 14742,9317.45L14742,9448.41C14742,9471.47 14753.7,9483 14777,9483ZM14856.9,9353.12L14827.1,9353.12C14780,9380 14782.4,9415.68 14782.4,9420.19C14782.4,9432.54 14793.8,9442.55 14807.9,9442.55L14876.1,9442.55C14890.2,9442.55 14901.6,9432.54 14901.6,9420.19C14901.6,9415.77 14903.8,9379.86 14856.9,9353.12ZM14827.1,9345.67L14856.9,9345.67L14867.9,9329.1C14868.7,9327.97 14868.8,9326.48 14868.1,9325.29C14867.5,9324.07 14866.2,9323.31 14864.9,9323.31L14819,9323.31C14817.6,9323.31 14816.5,9324.07 14815.9,9325.29C14815.2,9326.49 14815.3,9327.97 14816.1,9329.11L14827.1,9345.67Z" style="stroke:black;stroke-width:0.5px;"/>
                </g>
            </g>
        </g>
    </g>
</svg>
