<?xml version="1.0" encoding="UTF-8" standalone="no"?>
<!DOCTYPE svg PUBLIC "-//W3C//DTD SVG 1.1//EN" "http://www.w3.org/Graphics/SVG/1.1/DTD/svg11.dtd">
<svg width="100%" height="100%" viewBox="0 0 203 204" version="1.1" xmlns="http://www.w3.org/2000/svg" xmlns:xlink="http://www.w3.org/1999/xlink" xml:space="preserve" xmlns:serif="http://www.serif.com/" style="fill-rule:evenodd;clip-rule:evenodd;">
    <g transform="matrix(1,0,0,1,-14741,-10047)">
        <g transform="matrix(1,0,0,1,13992.6,8057.17)">
            <g transform="matrix(1,0,0,1,-13992.6,-8057.17)">
                <g id="icon-interpersonal">
                    <path d="M14777.1,10249L14907.1,10249C14930.6,10249 14942.1,10237.5 14942.1,10214.4L14942.1,10083.5C14942.1,10060.4 14930.6,10048.9 14907.1,10048.9L14777.1,10048.9C14753.8,10048.9 14742.1,10060.4 14742.1,10083.5L14742.1,10214.4C14742.1,10237.5 14753.8,10249 14777.1,10249ZM14763.2,10142.9C14764.1,10131.7 14773.4,10123.2 14784.6,10123.2L14796.6,10123.2C14803.8,10123.2 14810.3,10126.7 14814.2,10132.3C14813.5,10132.8 14812.8,10133.4 14812.2,10134L14795,10151.2C14789.1,10157.1 14789.1,10166.6 14795,10172.5L14807.8,10185.2L14807.8,10204.8C14807.8,10211.9 14802,10217.7 14794.9,10217.7L14786.3,10217.7C14779.2,10217.7 14773.4,10211.9 14773.4,10204.8L14773.4,10173.7C14766.3,10171.2 14761.4,10164.1 14762.1,10156.1L14763.2,10142.9ZM14872.1,10134C14871.5,10133.4 14870.8,10132.8 14870.1,10132.3C14874,10126.7 14880.5,10123.2 14887.7,10123.2L14899.7,10123.2C14910.9,10123.2 14920.2,10131.7 14921.1,10142.9L14922.2,10156.1C14922.9,10164.1 14918,10171.2 14910.9,10173.7L14910.9,10204.8C14910.9,10211.9 14905.1,10217.7 14898,10217.7L14889.4,10217.7C14882.3,10217.7 14876.5,10211.9 14876.5,10204.8L14876.5,10185.2L14889.3,10172.5C14895.2,10166.6 14895.2,10157.1 14889.3,10151.2L14872.1,10134ZM14861.3,10138.2L14861.5,10138.2C14863.1,10138.2 14864.8,10138.8 14866,10140.1L14883.2,10157.3C14885.8,10159.8 14885.8,10163.9 14883.2,10166.4L14866,10183.5C14864.2,10185.4 14861.4,10185.9 14859,10184.9C14856.6,10184 14855,10181.6 14855,10179L14855,10170.4L14829.3,10170.4L14829.3,10179C14829.3,10181.6 14827.7,10184 14825.3,10185C14822.9,10186 14820.1,10185.4 14818.2,10183.6L14801.1,10166.4C14798.5,10163.9 14798.5,10159.8 14801.1,10157.3L14818.2,10140.1C14820.1,10138.2 14822.9,10137.7 14825.3,10138.7C14827.7,10139.7 14829.3,10142.1 14829.3,10144.7L14829.3,10153.2L14855,10153.2L14855,10144.6C14855,10142 14856.6,10139.7 14859,10138.7C14859.8,10138.4 14860.6,10138.2 14861.3,10138.2ZM14773.4,10097.4C14773.4,10087.9 14781.2,10080.2 14790.6,10080.2C14800,10080.2 14807.8,10087.9 14807.8,10097.4C14807.8,10106.8 14800,10114.6 14790.6,10114.6C14781.2,10114.6 14773.4,10106.8 14773.4,10097.4ZM14876.5,10097.4C14876.5,10087.9 14884.3,10080.2 14893.7,10080.2C14903.1,10080.2 14910.9,10087.9 14910.9,10097.4C14910.9,10106.8 14903.1,10114.6 14893.7,10114.6C14884.3,10114.6 14876.5,10106.8 14876.5,10097.4Z" style="stroke:black;stroke-width:0.5px;"/>
                </g>
            </g>
        </g>
    </g>
</svg>
