<?xml version="1.0" encoding="UTF-8" standalone="no"?>
<!DOCTYPE svg PUBLIC "-//W3C//DTD SVG 1.1//EN" "http://www.w3.org/Graphics/SVG/1.1/DTD/svg11.dtd">
<svg width="100%" height="100%" viewBox="0 0 147 148" version="1.1" xmlns="http://www.w3.org/2000/svg" xmlns:xlink="http://www.w3.org/1999/xlink" xml:space="preserve" xmlns:serif="http://www.serif.com/" style="fill-rule:evenodd;clip-rule:evenodd;stroke-linejoin:round;stroke-miterlimit:2;">
    <g transform="matrix(1,0,0,1,-14712,-8549)">
        <g id="icon-thinking" transform="matrix(1.25424,0,0,1.25424,14706.2,8541.35)">
            <path d="M104,21.4C93.4,12.1 79.1,7 63.6,7C59.92,7 56.21,7.31 52.52,7.93C49.06,6.6 45.3,6.16 41.57,6.74C40.7,6.85 39.95,7.39 39.57,8.18C39.22,8.97 39.28,9.89 39.73,10.63L39.69,10.68C39.82,10.9 39.98,11.09 40.16,11.27C21.1,18.55 5.6,35.34 5.6,62.9C5.6,66.56 5.88,70.03 6.4,73.31C5.69,73.76 5.19,74.41 5.13,75.24C4,77.85 6.83,82.56 7.9,85.63C9.63,91.29 8.26,95.68 7.97,101.57C7.11,115.74 19.03,124.97 31.6,123.32C38.77,123.58 46.31,121.45 48.94,117.16C53.78,118.25 58.72,118.8 63.6,118.8C79,118.8 93.4,113.6 104,104.3C115.5,94.1 121.6,79.8 121.6,62.9C121.6,46 115.5,31.6 104,21.4ZM47.48,89.14C42.7,91.24 38.18,94.01 34.43,97.89C34.43,97.89 35.47,98.27 37.03,97.5C38.6,96.73 44.46,93.83 44.46,93.83C46.21,94.57 47.05,97.48 46.1,99.03C44.56,101.54 38.57,105.01 35.58,104.86C36.12,107.5 42.83,105.29 46.16,102.86C50.94,107.67 41.47,112.88 36.97,113.24C37.06,116.63 45.08,113.33 46.65,111.71C49.56,117.43 35.93,120.53 30.62,121.42C27.35,121.37 21.4,120.48 16.93,117.56C10.75,113.84 8.92,103.86 10.45,96.29C11.33,92.76 10.47,86.58 9.12,82.03C8.51,78.98 5.61,74.31 10.51,74.84C11.13,74.94 11.72,75.03 12.27,75.31C18.36,78.03 14.55,89.48 21.96,91.22C26.24,91.87 33.32,87.54 37.62,85.01C45.11,80.54 55.43,76.32 61.39,79.31C65.38,85.26 51.09,86.93 47.48,89.14ZM101.36,101.29C91.43,110 78.02,114.8 63.6,114.8C58.94,114.8 54.33,114.27 49.89,113.27C49.81,112.1 49.45,110.85 48.74,109.5C48.7,109.64 49.66,107.91 49.84,106.71C49.9,106.47 49.94,106.22 49.97,105.99C49.96,105.98 49.96,105.97 49.97,105.96C50.15,104.24 49.71,101.97 48.46,100.9C49.1,98.76 49.38,97.23 49.15,95.24C49.74,94.12 52.05,90.13 55.82,88.74C60.4,87.86 66.28,84.41 64,79.31C62.01,71.71 45.09,77.13 36.27,82.91C27.68,89.29 20.43,85.33 18.64,82.13C18.64,82.13 18.64,82.15 18.63,82.16C17.54,77.44 15.88,72.54 10.33,72.47C9.85,69.4 9.6,66.21 9.6,62.9C9.6,46.52 15.51,32.94 26.7,23.62C32.65,18.66 40.07,15.01 48.13,12.95C51.57,13.92 54.79,15.6 57.56,17.92L57.65,18C58.66,18.92 60.2,18.95 61.25,18.08C62.23,17.29 62.46,15.89 61.78,14.83C61.71,14.71 61.64,14.6 61.56,14.5C60.6,13.28 59.51,12.19 58.31,11.23C60.06,11.08 61.83,11 63.6,11C78.1,11 91.51,15.76 101.35,24.39C111.98,33.82 117.6,47.14 117.6,62.9C117.6,78.59 111.98,91.88 101.36,101.29Z" style="fill-rule:nonzero;"/>
            <path d="M41.58,62.54C41.04,62.99 40.81,63.71 41,64.39C41.19,65.08 41.76,65.6 42.46,65.72C42.78,65.77 43.1,65.73 43.4,65.61C48.83,63.6 54.69,63.06 60.4,64.05C66.11,64.93 71.49,67.29 76,70.91C76.25,71.12 76.55,71.25 76.87,71.31C77.58,71.41 78.29,71.09 78.68,70.48C79.06,69.89 79.06,69.13 78.68,68.54C78.08,67.59 77.42,66.67 76.7,65.8C67.9,55.2 52.18,53.74 41.58,62.54Z" style="fill-rule:nonzero;"/>
            <path d="M80.77,31.11C76.58,31.11 72.77,34.66 72.77,40.53C72.77,46.4 76.58,49.94 80.77,49.94C84.96,49.94 88.77,46.41 88.77,40.53C88.77,34.65 84.96,31.11 80.77,31.11Z" style="fill-rule:nonzero;"/>
            <path d="M54.14,31.41C54.14,25.53 50.34,22 46.14,22C41.95,22 38.14,25.54 38.14,31.41C38.14,37.28 41.95,40.83 46.14,40.83C50.34,40.83 54.14,37.29 54.14,31.41Z" style="fill-rule:nonzero;"/>
            <path d="M73.71,26.08L73.85,26.06C79.45,25.02 85.24,25.89 90.29,28.53C91.12,29 92.13,29 92.96,28.53L93,28.52C93.74,28.11 94.24,27.36 94.34,26.52C94.4,25.65 94.03,24.81 93.34,24.28C89.01,20.83 83.51,19.18 78,19.7C75.96,19.87 73.96,20.35 72.06,21.12L71.7,21.29C70.59,21.88 70.1,23.21 70.56,24.38C71.05,25.65 72.38,26.37 73.71,26.08Z" style="fill-rule:nonzero;"/>
        </g>
    </g>
</svg>
