<?xml version="1.0" encoding="UTF-8" standalone="no"?>
<!DOCTYPE svg PUBLIC "-//W3C//DTD SVG 1.1//EN" "http://www.w3.org/Graphics/SVG/1.1/DTD/svg11.dtd">
<svg width="100%" height="100%" viewBox="0 0 160 129" version="1.1" xmlns="http://www.w3.org/2000/svg" xmlns:xlink="http://www.w3.org/1999/xlink" xml:space="preserve" xmlns:serif="http://www.serif.com/" style="fill-rule:evenodd;clip-rule:evenodd;stroke-linejoin:round;stroke-miterlimit:2;">
    <g transform="matrix(1,0,0,1,-15761,-10262)">
        <g transform="matrix(1,0,0,1,13992.6,7972.17)">
            <g id="icon-societal-solid" transform="matrix(0.25,0,0,0.25,1768.4,2290.76)">
                <path d="M48,0C21.5,0 0,21.5 0,48L0,464C0,490.5 21.5,512 48,512L144,512L144,432C144,405.5 165.5,384 192,384C218.5,384 240,405.5 240,432L240,512L329.9,512C323.6,501.8 320,489.8 320,476.9C320,430 345.8,389.1 384,367.7L384,48C384,21.5 362.5,0 336,0L48,0ZM64,240C64,231.2 71.2,224 80,224L112,224C120.8,224 128,231.2 128,240L128,272C128,280.8 120.8,288 112,288L80,288C71.2,288 64,280.8 64,272L64,240ZM176,224L208,224C216.8,224 224,231.2 224,240L224,272C224,280.8 216.8,288 208,288L176,288C167.2,288 160,280.8 160,272L160,240C160,231.2 167.2,224 176,224ZM256,240C256,231.2 263.2,224 272,224L304,224C312.8,224 320,231.2 320,240L320,272C320,280.8 312.8,288 304,288L272,288C263.2,288 256,280.8 256,272L256,240ZM80,96L112,96C120.8,96 128,103.2 128,112L128,144C128,152.8 120.8,160 112,160L80,160C71.2,160 64,152.8 64,144L64,112C64,103.2 71.2,96 80,96ZM160,112C160,103.2 167.2,96 176,96L208,96C216.8,96 224,103.2 224,112L224,144C224,152.8 216.8,160 208,160L176,160C167.2,160 160,152.8 160,144L160,112ZM272,96L304,96C312.8,96 320,103.2 320,112L320,144C320,152.8 312.8,160 304,160L272,160C263.2,160 256,152.8 256,144L256,112C256,103.2 263.2,96 272,96ZM576,272C576,228.113 539.887,192 496,192C452.113,192 416,228.113 416,272C416,315.887 452.113,352 496,352C539.887,352 576,315.887 576,272ZM352,477.1C352,496.4 367.6,512 386.9,512L605.1,512C624.4,512 640,496.4 640,477.1C640,425.7 598.3,384 546.9,384L445.1,384C393.7,384 352,425.7 352,477.1Z"/>
            </g>
        </g>
    </g>
</svg>
