<?xml version="1.0" encoding="UTF-8" standalone="no"?>
<!DOCTYPE svg PUBLIC "-//W3C//DTD SVG 1.1//EN" "http://www.w3.org/Graphics/SVG/1.1/DTD/svg11.dtd">
<svg width="100%" height="100%" viewBox="0 0 85 84" version="1.1" xmlns="http://www.w3.org/2000/svg" xmlns:xlink="http://www.w3.org/1999/xlink" xml:space="preserve" xmlns:serif="http://www.serif.com/" style="fill-rule:evenodd;clip-rule:evenodd;stroke-linejoin:round;stroke-miterlimit:2;">
    <g transform="matrix(1,0,0,1,-14348,-10925)">
        <g transform="matrix(1,0,0,1,13992.6,7972.17)">
            <g id="icon-cross-5" transform="matrix(1,0,0,1,348.645,3030.04)">
                <path d="M48.828,6.787C71.973,6.787 90.82,-12.06 90.82,-35.205C90.82,-58.35 71.973,-77.197 48.828,-77.197C25.684,-77.197 6.836,-58.35 6.836,-35.205C6.836,-12.06 25.684,6.787 48.828,6.787Z" style="fill-rule:nonzero;"/>
                <g transform="matrix(1.35566,0,0,1.35566,-17.3748,12.5036)">
                    <path d="M37.744,-18.457C34.473,-18.457 31.982,-20.947 31.982,-24.268C31.982,-25.684 32.617,-27.148 33.74,-28.223L40.625,-35.156L33.74,-42.09C32.617,-43.164 31.982,-44.629 31.982,-46.045C31.982,-49.365 34.473,-51.856 37.744,-51.856C39.551,-51.856 40.918,-51.318 42.09,-50.147L48.828,-43.408L55.615,-50.147C56.787,-51.318 58.154,-51.856 59.961,-51.856C63.232,-51.856 65.723,-49.365 65.723,-46.045C65.723,-44.629 65.088,-43.164 63.965,-42.09L57.129,-35.156L63.965,-28.223C65.088,-27.148 65.723,-25.684 65.723,-24.268C65.723,-20.947 63.232,-18.457 59.961,-18.457C58.154,-18.457 56.787,-18.994 55.615,-20.166L48.828,-26.856L42.09,-20.166C40.918,-18.994 39.551,-18.457 37.744,-18.457Z" style="fill:white;fill-rule:nonzero;"/>
                </g>
            </g>
        </g>
    </g>
</svg>
