<svg xmlns="http://www.w3.org/2000/svg" height="48" viewBox="0 -960 960 960" width="48"><path d="M480.175-468q12.825 0 21.325-8.625T510-498v-147q0-12.75-8.675-21.375-8.676-8.625-21.5-8.625-12.825 0-21.325 8.625T450-645v147q0 12.75 8.675 21.375 8.676 8.625 21.5 8.625ZM480-334q14.45 0 24.225-9.775Q514-353.55 514-368q0-14.45-9.775-24.225Q494.45-402 480-402q-14.45 0-24.225 9.775Q446-382.45 446-368q0 14.45 9.775 24.225Q465.55-334 480-334Zm0 251q-3.667 0-7.333-.5Q469-84 466-85q-134-40-220-164.5T160-523v-196q0-19.257 10.875-34.662Q181.75-769.068 199-776l260-97q11-4 21-4t21 4l260 97q17.25 6.932 28.125 22.338Q800-738.257 800-719v196q0 149-86 273.5T494-85l-14 2Zm0-60q115-38 187.5-143.5T740-523v-196l-260-98-260 98v196q0 131 72.5 236.5T480-143Zm0-337Z"/></svg>