<svg xmlns="http://www.w3.org/2000/svg" height="40" viewBox="0 -960 960 960" width="40"><path d="M365.13-136.797 175.797-327.13q-6.653-6.652-9.761-14.575-3.109-7.922-3.109-16.384t3.109-16.295q3.108-7.833 9.761-14.486l189-189q12.58-12.58 31.14-12.891 18.56-.312 31.656 13.058 12.813 12.369 12.813 30.964 0 18.594-12.638 31.609L313.377-400.739h369.217v-365.928q0-18.5 12.82-31.286 12.82-12.787 31.37-12.787t31.253 12.787q12.703 12.786 12.703 31.286v410q0 18.501-12.787 31.287-12.786 12.786-31.286 12.786H314.044L427.87-198.536q12.203 12.203 12.703 30.592T427.87-136.13q-13.015 13.015-31.37 12.681-18.355-.333-31.37-13.348Z"/></svg>