<svg xmlns="http://www.w3.org/2000/svg" height="48" viewBox="0 -960 960 960" width="48"><path d="M480.235-360Q497-360 508.5-371.667 520-383.333 520-400v-60h60q16.667 0 28.333-11.735Q620-483.471 620-500.235 620-517 608.333-528.5 596.667-540 580-540h-60v-60q0-16.667-11.735-28.333Q496.529-640 479.765-640 463-640 451.5-628.333 440-616.667 440-600v60h-60q-16.667 0-28.333 11.735Q340-516.529 340-499.765 340-483 351.667-471.5 363.333-460 380-460h60v60q0 16.667 11.735 28.333Q463.471-360 480.235-360ZM480-83q-3.667 0-7.333-.5Q469-84 466-85q-134-40-220-164.5T160-523v-196q0-19.257 10.875-34.662Q181.75-769.068 199-776l260-97q11-4 21-4t21 4l260 97q17.25 6.932 28.125 22.338Q800-738.257 800-719v196q0 149-86 273.5T494-85l-14 2Zm0-60q115-38 187.5-143.5T740-523v-196l-260-98-260 98v196q0 131 72.5 236.5T480-143Zm0-337Z"/></svg>