<?xml version="1.0" encoding="UTF-8" standalone="no"?>
<!DOCTYPE svg PUBLIC "-//W3C//DTD SVG 1.1//EN" "http://www.w3.org/Graphics/SVG/1.1/DTD/svg11.dtd">
<svg width="100%" height="100%" viewBox="0 0 161 130" version="1.1" xmlns="http://www.w3.org/2000/svg" xmlns:xlink="http://www.w3.org/1999/xlink" xml:space="preserve" xmlns:serif="http://www.serif.com/" style="fill-rule:evenodd;clip-rule:evenodd;stroke-linejoin:round;stroke-miterlimit:2;">
    <g transform="matrix(1,0,0,1,-15761,-9759)">
        <g transform="matrix(1,0,0,1,13992.6,7972.17)">
            <g id="icon-quality-solid" transform="matrix(0.251816,0,0,0.251816,1768.12,1787.3)">
                <path d="M117.9,62.4C101.1,56.8 92.1,38.7 97.7,21.9C103.3,5.1 121.4,-3.9 138.2,1.7L251.2,39.4C265,15.8 290.7,0 320,0C364.2,0 400,35.8 400,80C400,83 399.8,85.9 399.5,88.8L522.1,129.7C538.9,135.3 547.9,153.4 542.3,170.2C536.7,187 518.6,196 501.8,190.4L366.4,145.2C361.9,148.4 357.1,151.1 352,153.4L352,480C352,497.7 337.7,512 320,512L128,512C110.3,512 96,497.7 96,480C96,462.3 110.3,448 128,448L288,448L288,153.3C267,144.1 250.8,126.3 243.8,104.3L117.9,62.3L117.9,62.4ZM200.4,288L128,163.8L55.6,288L200.4,288ZM128,384C65.1,384 12.8,350 2,305.1C-0.6,294.1 3,282.8 8.7,273L103.9,109.8C108.9,101.2 118.1,96 128,96C137.9,96 147.1,101.3 152.1,109.8L247.3,273C253,282.8 256.6,294.1 254,305.1C243.2,350 190.9,384 128,384ZM510.8,291.8L438.4,416L583.3,416L510.8,291.8ZM636.8,433.1C626,478 573.7,512 510.8,512C447.9,512 395.6,478 384.8,433.1C382.2,422.1 385.8,410.8 391.5,401L486.7,237.8C491.7,229.2 500.9,224 510.8,224C520.7,224 529.9,229.3 534.9,237.8L630.1,401C635.8,410.8 639.4,422.1 636.8,433.1Z"/>
            </g>
        </g>
    </g>
</svg>
