<?xml version="1.0" encoding="UTF-8" standalone="no"?>
<!DOCTYPE svg PUBLIC "-//W3C//DTD SVG 1.1//EN" "http://www.w3.org/Graphics/SVG/1.1/DTD/svg11.dtd">
<svg width="100%" height="100%" viewBox="0 0 638 386" version="1.1" xmlns="http://www.w3.org/2000/svg" xmlns:xlink="http://www.w3.org/1999/xlink" xml:space="preserve" xmlns:serif="http://www.serif.com/" style="fill-rule:evenodd;clip-rule:evenodd;stroke-linejoin:round;stroke-miterlimit:2;">
    <g transform="matrix(1,0,0,1,-14700,-10904)">
        <g transform="matrix(1,0,0,1,13992.6,7972.17)">
            <g transform="matrix(-1,0,0,1,1426.61,2932.52)">
                <g id="icon-telescope">
                    <path d="M706.914,316.523L647.119,280.414C645.141,264.287 637.863,251.358 625.695,246.122L490.003,164.178L489.573,165.112C483.994,153.155 475.489,143.936 464.242,139.069L260.827,16.269L260.458,17.117L260.458,17.092C255.063,12.63 248.978,8.906 242.342,6.03C191.85,-15.725 126.523,23.238 96.436,93.086C66.372,162.811 82.842,237.172 133.345,258.952C139.995,261.805 146.891,263.647 153.823,264.508L153.527,265.233L382.508,328.778C393.742,333.633 406.267,333.472 418.803,329.356L418.434,330.241L571.172,372.656C583.389,377.916 597.881,374.414 611.019,364.716L678.139,383.323C690.123,388.498 706.286,377.78 714.239,359.32C722.191,340.872 718.922,321.709 706.914,316.523ZM241.431,155.563C223.006,198.334 192.366,223.973 167.697,232.331C156.819,235.895 147.109,236.325 140.189,233.327C117.477,223.555 100.759,167.927 127.295,106.384C153.82,44.856 205.711,18.798 228.425,28.595C235.345,31.57 241.736,38.895 246.591,49.292C257.459,72.967 259.844,112.837 241.431,155.563Z" style="fill-rule:nonzero;"/>
                </g>
            </g>
        </g>
    </g>
</svg>
