<?xml version="1.0" encoding="UTF-8" standalone="no"?>
<!DOCTYPE svg PUBLIC "-//W3C//DTD SVG 1.1//EN" "http://www.w3.org/Graphics/SVG/1.1/DTD/svg11.dtd">
<svg width="100%" height="100%" viewBox="0 0 143 151" version="1.1" xmlns="http://www.w3.org/2000/svg" xmlns:xlink="http://www.w3.org/1999/xlink" xml:space="preserve" xmlns:serif="http://www.serif.com/" style="fill-rule:evenodd;clip-rule:evenodd;stroke-linejoin:round;stroke-miterlimit:2;">
    <g transform="matrix(1,0,0,1,-14286,-8547)">
        <g transform="matrix(1,0,0,1,13992.6,8057.17)">
            <g id="icon-thinking-alpha" transform="matrix(4.16667,0,0,4.16667,289.888,490.672)">
                <path d="M14.524,21.036C14.379,20.92 14.266,20.762 14.212,20.572C14.078,20.112 14.342,19.654 14.802,19.551C19.33,18.53 22.379,20.914 22.508,21.016C22.892,21.322 22.967,21.861 22.681,22.221C22.395,22.579 21.853,22.622 21.47,22.318C21.36,22.234 18.947,20.395 15.288,21.22C15.014,21.281 14.734,21.204 14.524,21.036Z" style="fill-rule:nonzero;"/>
                <ellipse cx="13.119" cy="11.174" rx="2.125" ry="2.656"/>
                <ellipse cx="24.375" cy="12.236" rx="2.125" ry="2.656"/>
                <path d="M17.276,35.149C17.276,35.149 18.541,34.738 18.705,33.797C18.878,32.825 18.081,32.63 18.081,32.63C18.081,32.63 19.122,32.422 19.253,31.254C19.376,30.153 18.392,29.891 18.392,29.891C18.392,29.891 19.362,29.491 19.408,28.352C19.446,27.393 18.413,26.924 18.413,26.924C18.413,26.924 23.451,25.703 23.969,25.583C24.485,25.463 25.289,24.968 25.038,23.889C24.789,22.809 23.834,22.771 23.341,22.886C22.847,23.001 16.597,24.452 14.441,24.954L13.002,25.288C12.462,25.415 12.217,25.178 12.598,24.776C13.106,24.24 13.431,23.647 13.544,22.663C13.663,21.628 13.312,20.35 13.111,19.854C12.737,18.933 12.106,18.205 11.377,17.955C10.24,17.565 9.432,18.276 9.835,19.516C10.439,21.37 10.043,22.891 9.002,23.809C6.553,25.966 5.414,27.504 6.172,30.782C7,34.357 10.549,36.658 14.124,35.83L17.276,35.149Z" style="fill-opacity:0.54;fill-rule:nonzero;"/>
                <g transform="matrix(0.24,0,0,0.24,-3427.8,-2051.48)">
                    <path d="M14307.2,8668.65C14294.5,8655.84 14286.7,8638.21 14286.7,8618.75C14286.7,8579.66 14318.4,8547.92 14357.5,8547.92C14396.6,8547.92 14428.3,8579.66 14428.3,8618.75C14428.3,8656.94 14398,8688.11 14360.2,8689.53C14360.3,8689.25 14360.4,8688.96 14360.4,8688.66C14361.1,8684.61 14357.8,8683.8 14357.8,8683.8C14357.8,8683.8 14362.2,8682.93 14362.7,8678.07C14363.2,8673.48 14359.1,8672.39 14359.1,8672.39C14359.1,8672.39 14363.2,8670.72 14363.4,8665.97C14363.5,8661.98 14359.2,8660.02 14359.2,8660.02C14359.2,8660.02 14380.2,8654.94 14382.4,8654.44C14384.5,8653.94 14387.9,8651.87 14386.8,8647.38C14385.8,8642.88 14381.8,8642.72 14379.7,8643.2C14377.7,8643.68 14351.6,8649.72 14342.7,8651.82L14336.7,8653.21C14334.4,8653.74 14333.4,8652.75 14335,8651.07C14337.1,8648.84 14338.4,8646.37 14338.9,8642.27C14339.4,8637.96 14338,8632.63 14337.1,8630.57C14335.6,8626.73 14332.9,8623.69 14329.9,8622.65C14325.2,8621.03 14321.8,8623.99 14323.5,8629.16C14326,8636.88 14324.3,8643.22 14320,8647.05C14311.8,8654.22 14307.2,8659.76 14307.2,8668.65Z" style="fill-opacity:0.28;"/>
                </g>
                <path d="M9.296,6.351C9.132,6.263 8.993,6.127 8.905,5.952C8.689,5.524 8.865,5.025 9.298,4.84C13.564,3.009 16.997,4.797 17.141,4.874C17.574,5.105 17.749,5.621 17.532,6.028C17.316,6.433 16.792,6.574 16.359,6.346C16.236,6.283 13.527,4.914 10.081,6.393C9.824,6.502 9.534,6.478 9.296,6.351ZM21.431,10.101C21.275,10.003 21.145,9.858 21.069,9.677C20.882,9.235 21.092,8.75 21.537,8.593C25.918,7.057 29.222,9.073 29.36,9.16C29.775,9.42 29.915,9.947 29.672,10.338C29.43,10.728 28.896,10.833 28.481,10.576C28.361,10.504 25.754,8.955 22.214,10.197C21.948,10.288 21.661,10.243 21.431,10.101Z" style="fill-rule:nonzero;"/>
            </g>
        </g>
    </g>
</svg>
