<?xml version="1.0" encoding="UTF-8" standalone="no"?>
<!DOCTYPE svg PUBLIC "-//W3C//DTD SVG 1.1//EN" "http://www.w3.org/Graphics/SVG/1.1/DTD/svg11.dtd">
<svg width="100%" height="100%" viewBox="0 0 203 204" version="1.1" xmlns="http://www.w3.org/2000/svg" xmlns:xlink="http://www.w3.org/1999/xlink" xml:space="preserve" xmlns:serif="http://www.serif.com/" style="fill-rule:evenodd;clip-rule:evenodd;">
    <g transform="matrix(1,0,0,1,-14741,-9807)">
        <g transform="matrix(1,0,0,1,13992.6,8057.17)">
            <g transform="matrix(1,0,0,1,-13992.6,-8057.17)">
                <g id="icon-quality">
                    <path d="M14777.1,10009L14907.1,10009C14930.6,10009 14942.1,9997.47 14942.1,9974.41L14942.1,9843.45C14942.1,9820.39 14930.6,9808.86 14907.1,9808.86L14777.1,9808.86C14753.8,9808.86 14742.1,9820.39 14742.1,9843.45L14742.1,9974.41C14742.1,9997.47 14753.8,10009 14777.1,10009ZM14791.4,9860.18C14787.2,9858.77 14784.9,9854.21 14786.3,9849.98C14787.7,9845.75 14792.3,9843.48 14796.5,9844.9L14825,9854.39C14828.4,9848.44 14834.9,9844.47 14842.3,9844.47C14853.4,9844.47 14862.4,9853.48 14862.4,9864.61C14862.4,9865.37 14862.4,9866.1 14862.3,9866.83L14893.2,9877.13C14897.4,9878.54 14899.7,9883.09 14898.3,9887.33C14896.9,9891.56 14892.3,9893.82 14888.1,9892.41L14854,9881.03C14852.8,9881.84 14851.6,9882.52 14850.4,9883.09L14850.4,9965.34C14850.4,9969.8 14846.8,9973.4 14842.3,9973.4L14793.9,9973.4C14789.5,9973.4 14785.9,9969.8 14785.9,9965.34C14785.9,9960.88 14789.5,9957.28 14793.9,9957.28L14834.2,9957.28L14834.2,9883.07C14828.9,9880.75 14824.9,9876.27 14823.1,9870.73L14791.4,9860.16L14791.4,9860.18ZM14922.1,9953.53C14919.4,9964.83 14906.2,9973.4 14890.3,9973.4C14874.5,9973.4 14861.3,9964.83 14858.6,9953.53C14858,9950.76 14858.9,9947.91 14860.3,9945.44L14884.3,9904.35C14885.5,9902.18 14887.8,9900.87 14890.3,9900.87C14892.8,9900.87 14895.1,9902.21 14896.4,9904.35L14920.4,9945.44C14921.8,9947.91 14922.7,9950.76 14922.1,9953.53ZM14890.3,9917.95L14872.1,9949.22L14908.6,9949.22L14890.3,9917.95ZM14793.9,9941.16C14778.1,9941.16 14764.9,9932.6 14762.2,9921.3C14761.6,9918.53 14762.5,9915.68 14763.9,9913.21L14787.9,9872.12C14789.1,9869.95 14791.5,9868.64 14793.9,9868.64C14796.4,9868.64 14798.8,9869.98 14800,9872.12L14824,9913.21C14825.4,9915.68 14826.3,9918.53 14825.7,9921.3C14823,9932.6 14809.8,9941.16 14793.9,9941.16ZM14812.2,9916.99L14793.9,9885.71L14775.7,9916.99L14812.2,9916.99Z" style="stroke:black;stroke-width:0.5px;"/>
                </g>
            </g>
        </g>
    </g>
</svg>
