<?xml version="1.0" encoding="UTF-8" standalone="no"?>
<!DOCTYPE svg PUBLIC "-//W3C//DTD SVG 1.1//EN" "http://www.w3.org/Graphics/SVG/1.1/DTD/svg11.dtd">
<svg width="100%" height="100%" viewBox="0 0 161 126" version="1.1" xmlns="http://www.w3.org/2000/svg" xmlns:xlink="http://www.w3.org/1999/xlink" xml:space="preserve" xmlns:serif="http://www.serif.com/" style="fill-rule:evenodd;clip-rule:evenodd;stroke-linejoin:round;stroke-miterlimit:2;">
    <g transform="matrix(1,0,0,1,-15761,-9498)">
        <g transform="matrix(1,0,0,1,13992.6,7972.17)">
            <g id="icon-prepresentational-solid" transform="matrix(0.278274,0,0,0.278274,1768.4,1517.7)">
                <path d="M64,32C28.7,32 0,60.7 0,96L0,416C0,451.3 28.7,480 64,480L512,480C547.3,480 576,451.3 576,416L576,96C576,60.7 547.3,32 512,32L64,32ZM144,288L208,288C252.2,288 288,323.8 288,368C288,376.8 280.8,384 272,384L80,384C71.2,384 64,376.8 64,368C64,323.8 99.8,288 144,288ZM112,192C112,156.891 140.891,128 176,128C211.109,128 240,156.891 240,192C240,227.109 211.109,256 176,256C140.891,256 112,227.109 112,192ZM368,160L496,160C504.8,160 512,167.2 512,176C512,184.8 504.8,192 496,192L368,192C359.2,192 352,184.8 352,176C352,167.2 359.2,160 368,160ZM368,224L496,224C504.8,224 512,231.2 512,240C512,248.8 504.8,256 496,256L368,256C359.2,256 352,248.8 352,240C352,231.2 359.2,224 368,224ZM368,288L496,288C504.8,288 512,295.2 512,304C512,312.8 504.8,320 496,320L368,320C359.2,320 352,312.8 352,304C352,295.2 359.2,288 368,288Z"/>
            </g>
        </g>
    </g>
</svg>
