<?xml version="1.0" encoding="UTF-8" standalone="no"?>
<!DOCTYPE svg PUBLIC "-//W3C//DTD SVG 1.1//EN" "http://www.w3.org/Graphics/SVG/1.1/DTD/svg11.dtd">
<svg width="100%" height="100%" viewBox="0 0 100 74" version="1.1" xmlns="http://www.w3.org/2000/svg" xmlns:xlink="http://www.w3.org/1999/xlink" xml:space="preserve" xmlns:serif="http://www.serif.com/" style="fill-rule:evenodd;clip-rule:evenodd;stroke-linejoin:round;stroke-miterlimit:2;">
    <g transform="matrix(1,0,0,1,-15074,-10704)">
        <g transform="matrix(1,0,0,1,13992.6,7972.17)">
            <g id="icon-binocular-animation" transform="matrix(1,0,0,1,1072.52,2802.61)">
                <path d="M9.766,-16.016C9.766,-5.078 19.58,3.027 31.348,3.027C43.115,3.027 52.881,-5.078 52.881,-16.016L52.881,-25.195C54.639,-25.781 56.787,-26.123 58.935,-26.123C61.377,-26.123 63.379,-25.977 64.99,-25.488L64.99,-16.016C64.99,-5.078 74.707,3.027 86.523,3.027C98.291,3.027 108.105,-5.078 108.105,-16.016C108.105,-18.897 107.715,-21.631 106.055,-25.44L90.43,-62.305C88.232,-67.432 83.496,-70.41 77.539,-70.41C69.971,-70.41 64.99,-65.576 64.99,-58.35L64.99,-55.42C63.184,-55.762 61.182,-55.957 58.935,-55.957C56.836,-55.957 54.785,-55.664 52.881,-55.176L52.881,-58.35C52.881,-65.576 47.852,-70.41 40.332,-70.41C34.326,-70.41 29.59,-67.432 27.393,-62.305L11.816,-25.44C10.156,-21.631 9.766,-18.897 9.766,-16.016ZM16.602,-16.016C16.602,-23.486 23.047,-28.565 31.348,-28.565C39.648,-28.565 46.387,-23.486 46.387,-16.016C46.387,-8.545 39.648,-3.467 31.348,-3.467C23.047,-3.467 16.602,-8.545 16.602,-16.016ZM71.484,-16.016C71.484,-23.486 78.223,-28.565 86.523,-28.565C94.824,-28.565 101.27,-23.486 101.27,-16.016C101.27,-8.545 94.824,-3.467 86.523,-3.467C78.223,-3.467 71.484,-8.545 71.484,-16.016ZM52.881,-37.256L52.881,-43.066C54.785,-43.603 56.836,-43.848 58.935,-43.848C61.182,-43.848 63.184,-43.701 64.99,-43.311L64.99,-37.549C63.379,-38.037 61.426,-38.232 58.935,-38.232C56.787,-38.232 54.639,-37.842 52.881,-37.256Z" style="fill-rule:nonzero;"/>
                <g id="left-circle" transform="matrix(1.13188,0,0,1.13188,-17056.2,-12082.7)">
                    <path d="M15112.6,10673.5L15112.6,10673.5L15112.6,10673.5L15112.6,10673.5ZM15081.7,10660.8C15081.7,10653.3 15088.2,10648.2 15096.5,10648.2C15104.8,10648.2 15111.5,10653.3 15111.5,10660.8C15111.5,10668.2 15104.8,10673.3 15096.5,10673.3C15088.2,10673.3 15081.7,10668.2 15081.7,10660.8Z"/>
                </g>
                <g id="right-circle" transform="matrix(1.17506,0,0,1.17506,-17717.6,-12543.1)">
                    <path d="M15136.6,10660.8C15136.6,10653.3 15143.3,10648.2 15151.6,10648.2C15159.9,10648.2 15166.4,10653.3 15166.4,10660.8C15166.4,10668.2 15159.9,10673.3 15151.6,10673.3C15143.3,10673.3 15136.6,10668.2 15136.6,10660.8Z"/>
                </g>
            </g>
        </g>
    </g>
</svg>
