<?xml version="1.0" encoding="UTF-8" standalone="no"?>
<!DOCTYPE svg PUBLIC "-//W3C//DTD SVG 1.1//EN" "http://www.w3.org/Graphics/SVG/1.1/DTD/svg11.dtd">
<svg width="100%" height="100%" viewBox="0 0 120 120" version="1.1" xmlns="http://www.w3.org/2000/svg" xmlns:xlink="http://www.w3.org/1999/xlink" xml:space="preserve" xmlns:serif="http://www.serif.com/" style="fill-rule:evenodd;clip-rule:evenodd;stroke-linejoin:round;stroke-miterlimit:2;">
    <g transform="matrix(1,0,0,1,-15781,-9238)">
        <g transform="matrix(1,0,0,1,13992.6,7972.17)">
            <g id="icon-allocative-solid" transform="matrix(0.232886,0,0,0.232886,1788.79,1266.14)">
                <path d="M192,96L320,96L367.39,24.87C370.641,19.995 371.016,13.62 368.265,8.49C365.4,3.25 360,0 354.2,0L157.1,0C151.1,0 146.6,3.25 143.9,8.5C141.024,13.625 141.4,20 144.65,24.88L192,96ZM320,128L192,128C-10.4,243.4 0.1,396.6 0.1,416C0.1,469 49.21,512 109.7,512L402.2,512C462.84,512 511.9,469 511.9,416C511.9,397 521.3,242.8 320,128Z"/>
            </g>
        </g>
    </g>
</svg>
