<svg xmlns="http://www.w3.org/2000/svg" height="40" viewBox="0 -960 960 960" width="40"><path d="M334.217-215.043 100.13-449.13q-7.217-6.841-9.71-14.58-2.493-7.739-2.493-16.29 0-8.551 2.493-16.384 2.493-7.834 9.71-15.051l234.087-233.899q12.87-12.87 31.08-12.87 18.211 0 31.225 12.87 12.348 13.015 12.681 30.942.334 17.928-12.681 31.131L237.711-524.073H851q18.667 0 31.37 12.703T895.073-480q0 18.667-12.703 31.37T851-435.927H237.711l158.811 158.956q12.87 12.87 12.942 31.08.073 18.21-12.942 30.848-12.869 13.435-31.152 13.341-18.283-.094-31.153-13.341Z"/></svg>