<svg xmlns="http://www.w3.org/2000/svg" height="40" viewBox="0 -960 960 960" width="40"><path d="m480-406.667-192 192q-15.334 15.334-36.667 15.334-21.333 0-36.666-15.334-15.334-15.333-15.334-36.666T214.667-288l192-192-192-192q-15.334-15.334-15.334-36.667 0-21.333 15.334-36.666 15.333-15.334 36.666-15.334T288-745.333l192 192 192-192q15.334-15.334 36.667-15.334 21.333 0 36.666 15.334 15.334 15.333 15.334 36.666T745.333-672l-192 192 192 192q15.334 15.334 15.334 36.667 0 21.333-15.334 36.666-15.333 15.334-36.666 15.334T672-214.667l-192-192Z"/></svg>