<?xml version="1.0" encoding="UTF-8" standalone="no"?>
<!DOCTYPE svg PUBLIC "-//W3C//DTD SVG 1.1//EN" "http://www.w3.org/Graphics/SVG/1.1/DTD/svg11.dtd">
<svg width="100%" height="100%" viewBox="0 0 203 204" version="1.1" xmlns="http://www.w3.org/2000/svg" xmlns:xlink="http://www.w3.org/1999/xlink" xml:space="preserve" xmlns:serif="http://www.serif.com/" style="fill-rule:evenodd;clip-rule:evenodd;">
    <g transform="matrix(1,0,0,1,-14741,-10310)">
        <g transform="matrix(1,0,0,1,13992.6,8057.17)">
            <g transform="matrix(1,0,0,1,-13992.6,-8057.17)">
                <g id="icon-societal">
                    <path d="M14777.1,10512L14907.1,10512C14930.6,10512 14942.1,10500.5 14942.1,10477.4L14942.1,10346.5C14942.1,10323.4 14930.6,10311.9 14907.1,10311.9L14777.1,10311.9C14753.8,10311.9 14742.1,10323.4 14742.1,10346.5L14742.1,10477.4C14742.1,10500.5 14753.8,10512 14777.1,10512ZM14774,10347.9C14767.4,10347.9 14762,10353.3 14762,10359.9L14762,10463.9C14762,10470.6 14767.4,10475.9 14774,10475.9L14798,10475.9L14798,10455.9C14798,10449.3 14803.4,10443.9 14810,10443.9C14816.6,10443.9 14822,10449.3 14822,10455.9L14822,10475.9L14844.5,10475.9C14842.9,10473.4 14842,10470.4 14842,10467.2C14842,10455.4 14848.5,10445.2 14858,10439.9L14858,10359.9C14858,10353.3 14852.6,10347.9 14846,10347.9L14774,10347.9ZM14850,10467.2C14850,10472 14853.9,10475.9 14858.7,10475.9L14913.3,10475.9C14918.1,10475.9 14922,10472 14922,10467.2C14922,10454.4 14911.6,10443.9 14898.7,10443.9L14873.3,10443.9C14860.4,10443.9 14850,10454.4 14850,10467.2ZM14906,10415.9C14906,10405 14897,10395.9 14886,10395.9C14875,10395.9 14866,10405 14866,10415.9C14866,10426.9 14875,10435.9 14886,10435.9C14897,10435.9 14906,10426.9 14906,10415.9ZM14778,10407.9C14778,10405.7 14779.8,10403.9 14782,10403.9L14790,10403.9C14792.2,10403.9 14794,10405.7 14794,10407.9L14794,10415.9C14794,10418.1 14792.2,10419.9 14790,10419.9L14782,10419.9C14779.8,10419.9 14778,10418.1 14778,10415.9L14778,10407.9ZM14806,10403.9L14814,10403.9C14816.2,10403.9 14818,10405.7 14818,10407.9L14818,10415.9C14818,10418.1 14816.2,10419.9 14814,10419.9L14806,10419.9C14803.8,10419.9 14802,10418.1 14802,10415.9L14802,10407.9C14802,10405.7 14803.8,10403.9 14806,10403.9ZM14826,10407.9C14826,10405.7 14827.8,10403.9 14830,10403.9L14838,10403.9C14840.2,10403.9 14842,10405.7 14842,10407.9L14842,10415.9C14842,10418.1 14840.2,10419.9 14838,10419.9L14830,10419.9C14827.8,10419.9 14826,10418.1 14826,10415.9L14826,10407.9ZM14782,10371.9L14790,10371.9C14792.2,10371.9 14794,10373.7 14794,10375.9L14794,10383.9C14794,10386.1 14792.2,10387.9 14790,10387.9L14782,10387.9C14779.8,10387.9 14778,10386.1 14778,10383.9L14778,10375.9C14778,10373.7 14779.8,10371.9 14782,10371.9ZM14802,10375.9C14802,10373.7 14803.8,10371.9 14806,10371.9L14814,10371.9C14816.2,10371.9 14818,10373.7 14818,10375.9L14818,10383.9C14818,10386.1 14816.2,10387.9 14814,10387.9L14806,10387.9C14803.8,10387.9 14802,10386.1 14802,10383.9L14802,10375.9ZM14830,10371.9L14838,10371.9C14840.2,10371.9 14842,10373.7 14842,10375.9L14842,10383.9C14842,10386.1 14840.2,10387.9 14838,10387.9L14830,10387.9C14827.8,10387.9 14826,10386.1 14826,10383.9L14826,10375.9C14826,10373.7 14827.8,10371.9 14830,10371.9Z" style="stroke:black;stroke-width:0.5px;"/>
                </g>
            </g>
        </g>
    </g>
</svg>
