<?xml version="1.0" encoding="UTF-8" standalone="no"?>
<!DOCTYPE svg PUBLIC "-//W3C//DTD SVG 1.1//EN" "http://www.w3.org/Graphics/SVG/1.1/DTD/svg11.dtd">
<svg width="100%" height="100%" viewBox="0 0 204 204" version="1.1" xmlns="http://www.w3.org/2000/svg" xmlns:xlink="http://www.w3.org/1999/xlink" xml:space="preserve" xmlns:serif="http://www.serif.com/" style="fill-rule:evenodd;clip-rule:evenodd;">
    <g transform="matrix(1,0,0,1,-14740,-9544)">
        <g transform="matrix(1,0,0,1,13992.6,8057.17)">
            <g transform="matrix(1,0,0,1,-13992.6,-8057.17)">
                <g id="icon-representational">
                    <path d="M14777,9746L14907,9746C14930.5,9746 14942,9734.47 14942,9711.41L14942,9580.45C14942,9557.39 14930.5,9545.86 14907,9545.86L14777,9545.86C14753.7,9545.86 14742,9557.39 14742,9580.45L14742,9711.41C14742,9734.47 14753.7,9746 14777,9746ZM14779.8,9583.78C14770,9583.78 14762,9591.76 14762,9601.59L14762,9690.64C14762,9700.46 14770,9708.44 14779.8,9708.44L14904.5,9708.44C14914.3,9708.44 14922.3,9700.46 14922.3,9690.64L14922.3,9601.59C14922.3,9591.76 14914.3,9583.78 14904.5,9583.78L14779.8,9583.78ZM14802.1,9655.02L14819.9,9655.02C14832.2,9655.02 14842.1,9664.98 14842.1,9677.28C14842.1,9679.73 14840.1,9681.73 14837.7,9681.73L14784.3,9681.73C14781.8,9681.73 14779.8,9679.73 14779.8,9677.28C14779.8,9664.98 14789.8,9655.02 14802.1,9655.02ZM14864.4,9655.02L14900,9655.02C14902.5,9655.02 14904.5,9657.02 14904.5,9659.47C14904.5,9661.92 14902.5,9663.92 14900,9663.92L14864.4,9663.92C14862,9663.92 14860,9661.92 14860,9659.47C14860,9657.02 14862,9655.02 14864.4,9655.02ZM14793.2,9628.3C14793.2,9618.53 14801.2,9610.49 14811,9610.49C14820.7,9610.49 14828.8,9618.53 14828.8,9628.3C14828.8,9638.07 14820.7,9646.11 14811,9646.11C14801.2,9646.11 14793.2,9638.07 14793.2,9628.3ZM14864.4,9637.21L14900,9637.21C14902.5,9637.21 14904.5,9639.21 14904.5,9641.66C14904.5,9644.11 14902.5,9646.11 14900,9646.11L14864.4,9646.11C14862,9646.11 14860,9644.11 14860,9641.66C14860,9639.21 14862,9637.21 14864.4,9637.21ZM14864.4,9619.4L14900,9619.4C14902.5,9619.4 14904.5,9621.4 14904.5,9623.85C14904.5,9626.3 14902.5,9628.3 14900,9628.3L14864.4,9628.3C14862,9628.3 14860,9626.3 14860,9623.85C14860,9621.4 14862,9619.4 14864.4,9619.4Z" style="stroke:black;stroke-width:0.5px;"/>
                </g>
            </g>
        </g>
    </g>
</svg>
