<?xml version="1.0" encoding="UTF-8" standalone="no"?>
<!DOCTYPE svg PUBLIC "-//W3C//DTD SVG 1.1//EN" "http://www.w3.org/Graphics/SVG/1.1/DTD/svg11.dtd">
<svg width="100%" height="100%" viewBox="0 0 270 90" version="1.1" xmlns="http://www.w3.org/2000/svg" xmlns:xlink="http://www.w3.org/1999/xlink" xml:space="preserve" xmlns:serif="http://www.serif.com/" style="fill-rule:evenodd;clip-rule:evenodd;stroke-linejoin:round;stroke-miterlimit:2;">
    <g id="logo-google">
        <path d="M115.753,47.18C115.753,59.95 105.763,69.36 93.503,69.36C81.243,69.36 71.253,59.95 71.253,47.18C71.253,34.32 81.243,25 93.503,25C105.763,25 115.753,34.32 115.753,47.18ZM106.013,47.18C106.013,39.2 100.223,33.74 93.503,33.74C86.783,33.74 80.993,39.2 80.993,47.18C80.993,55.08 86.783,60.62 93.503,60.62C100.223,60.62 106.013,55.07 106.013,47.18Z" style="fill:rgb(236,66,51);fill-rule:nonzero;"/>
        <path d="M163.753,47.18C163.753,59.95 153.763,69.36 141.503,69.36C129.243,69.36 119.253,59.95 119.253,47.18C119.253,34.33 129.243,25 141.503,25C153.763,25 163.753,34.32 163.753,47.18ZM154.013,47.18C154.013,39.2 148.223,33.74 141.503,33.74C134.783,33.74 128.993,39.2 128.993,47.18C128.993,55.08 134.783,60.62 141.503,60.62C148.223,60.62 154.013,55.07 154.013,47.18Z" style="fill:rgb(250,190,5);fill-rule:nonzero;"/>
        <path d="M209.753,26.34L209.753,66.16C209.753,82.54 200.093,89.23 188.673,89.23C177.923,89.23 171.453,82.04 169.013,76.16L177.493,72.63C179.003,76.24 182.703,80.5 188.663,80.5C195.973,80.5 200.503,75.99 200.503,67.5L200.503,64.31L200.163,64.31C197.983,67 193.783,69.35 188.483,69.35C177.393,69.35 167.233,59.69 167.233,47.26C167.233,34.74 177.393,25 188.483,25C193.773,25 197.973,27.35 200.163,29.96L200.503,29.96L200.503,26.35L209.753,26.35L209.753,26.34ZM201.193,47.26C201.193,39.45 195.983,33.74 189.353,33.74C182.633,33.74 177.003,39.45 177.003,47.26C177.003,54.99 182.633,60.62 189.353,60.62C195.983,60.62 201.193,54.99 201.193,47.26Z" style="fill:rgb(66,134,244);fill-rule:nonzero;"/>
        <rect x="215.503" y="3" width="9.5" height="65" style="fill:rgb(52,169,83);fill-rule:nonzero;"/>
        <path d="M262.023,54.48L269.583,59.52C267.143,63.13 261.263,69.35 251.103,69.35C238.503,69.35 229.093,59.61 229.093,47.17C229.093,33.98 238.583,24.99 250.013,24.99C261.523,24.99 267.153,34.15 268.993,39.1L270.003,41.62L240.353,53.9C242.623,58.35 246.153,60.62 251.103,60.62C256.063,60.62 259.503,58.18 262.023,54.48ZM238.753,46.5L258.573,38.27C257.483,35.5 254.203,33.57 250.343,33.57C245.393,33.57 238.503,37.94 238.753,46.5Z" style="fill:rgb(236,66,51);fill-rule:nonzero;"/>
        <path d="M35.293,41.41L35.293,32L67.003,32C67.313,33.64 67.473,35.58 67.473,37.68C67.473,44.74 65.543,53.47 59.323,59.69C53.273,65.99 45.543,69.35 35.303,69.35C16.323,69.35 0.363,53.89 0.363,34.91C0.363,15.93 16.323,0.47 35.303,0.47C45.803,0.47 53.283,4.59 58.903,9.96L52.263,16.6C48.233,12.82 42.773,9.88 35.293,9.88C21.433,9.88 10.593,21.05 10.593,34.91C10.593,48.77 21.433,59.94 35.293,59.94C44.283,59.94 49.403,56.33 52.683,53.05C55.343,50.39 57.093,46.59 57.783,41.4L35.293,41.41Z" style="fill:rgb(66,134,244);fill-rule:nonzero;"/>
    </g>
</svg>
