<?xml version="1.0" encoding="UTF-8" standalone="no"?>
<!DOCTYPE svg PUBLIC "-//W3C//DTD SVG 1.1//EN" "http://www.w3.org/Graphics/SVG/1.1/DTD/svg11.dtd">
<svg width="100%" height="100%" viewBox="0 0 301 121" version="1.1" xmlns="http://www.w3.org/2000/svg" xmlns:xlink="http://www.w3.org/1999/xlink" xml:space="preserve" xmlns:serif="http://www.serif.com/" style="fill-rule:evenodd;clip-rule:evenodd;stroke-linejoin:round;stroke-miterlimit:2;">
    <g id="logo-ebay">
        <path id="e" d="M39.077,26.308C17.931,26.308 0.31,35.279 0.31,62.345C0.31,83.787 12.159,97.289 39.623,97.289C71.949,97.289 74.021,75.995 74.021,75.995L58.357,75.995C58.357,75.995 54.999,87.461 38.667,87.461C25.365,87.461 15.798,78.475 15.798,65.88L75.659,65.88L75.659,57.977C75.659,45.516 67.749,26.308 39.077,26.308ZM38.531,36.409C51.193,36.409 59.825,44.167 59.825,55.793L16.144,55.793C16.144,43.45 27.412,36.409 38.531,36.409Z" style="fill:white;fill-rule:nonzero;"/>
        <path id="b" d="M75.648,0.1L75.648,83.697C75.648,88.442 75.309,95.105 75.309,95.105L90.249,95.105C90.249,95.105 90.785,90.32 90.785,85.946C90.785,85.946 98.166,97.494 118.236,97.494C139.371,97.494 153.727,82.821 153.727,61.799C153.727,42.242 140.54,26.513 118.271,26.513C97.416,26.513 90.936,37.775 90.936,37.775L90.936,0.1L75.648,0.1ZM114.414,36.853C128.766,36.853 137.893,47.505 137.893,61.799C137.893,77.127 127.352,87.154 114.517,87.154C99.199,87.154 90.936,75.194 90.936,61.935C90.936,49.581 98.351,36.853 114.414,36.853Z" style="fill:white;fill-rule:nonzero;"/>
        <path id="a" d="M190.855,26.308C159.043,26.308 157.003,43.727 157.003,46.511L172.837,46.511C172.837,46.511 173.667,36.341 189.763,36.341C200.223,36.341 208.327,41.129 208.327,50.333L208.327,53.609L189.763,53.609C165.118,53.609 152.089,60.818 152.089,75.449C152.089,89.847 164.127,97.682 180.396,97.682C202.567,97.682 209.71,85.431 209.71,85.431C209.71,90.303 210.085,95.105 210.085,95.105L224.162,95.105C224.162,95.105 223.616,89.153 223.616,85.345L223.616,52.431C223.616,30.85 206.208,26.308 190.855,26.308ZM208.327,63.437L208.327,67.805C208.327,73.502 204.812,87.666 184.115,87.666C172.782,87.666 167.923,82.01 167.923,75.449C167.923,63.514 184.287,63.437 208.327,63.437Z" style="fill:white;fill-rule:nonzero;"/>
        <path id="y" d="M215.089,29.041L232.903,29.041L258.467,80.259L283.974,29.041L300.11,29.041L253.651,120.224L236.725,120.224L250.131,94.806L215.089,29.041Z" style="fill:white;fill-rule:nonzero;"/>
    </g>
</svg>
