<?xml version="1.0" encoding="UTF-8" standalone="no"?>
<!DOCTYPE svg PUBLIC "-//W3C//DTD SVG 1.1//EN" "http://www.w3.org/Graphics/SVG/1.1/DTD/svg11.dtd">
<svg width="100%" height="100%" viewBox="0 0 560 203" version="1.1" xmlns="http://www.w3.org/2000/svg" xmlns:xlink="http://www.w3.org/1999/xlink" xml:space="preserve" xmlns:serif="http://www.serif.com/" style="fill-rule:evenodd;clip-rule:evenodd;stroke-linejoin:round;stroke-miterlimit:2;">
    <g id="logo-emory">
        <path d="M19.893,182.737C19.893,193.808 27.085,198.86 36.408,198.86C49.41,198.86 52.375,190.28 52.375,182.105L52.375,159.692C52.375,152.673 45.954,155.532 45.954,152.943C45.954,152.597 46.432,152.271 46.641,152.271C49.336,152.271 52.034,152.509 54.722,152.509C56.035,152.509 57.278,152.271 58.536,152.271C58.88,152.271 59.423,152.597 59.423,153.021C59.423,154.911 55.338,153.413 55.338,159.751L55.338,181.204C55.338,184.606 56.172,201.692 36.065,201.692C17.888,201.692 14.44,191.525 14.44,180.863L14.44,157.54C14.44,153.476 8.83,155.118 8.83,152.943C8.83,152.471 10.009,152.271 10.355,152.271C12.154,152.271 13.882,152.509 15.746,152.509C17.959,152.509 20.166,152.271 22.308,152.271C22.659,152.271 24.524,152.13 24.524,152.943C24.524,154.832 19.893,152.943 19.893,157.896L19.893,182.737Z" style="fill:white;fill-rule:nonzero;"/>
        <path d="M85.67,165.909C85.67,151.493 77.286,155.529 77.286,152.953C77.286,152.544 77.986,152.273 78.33,152.273C79.434,152.273 80.482,152.508 81.583,152.508C82.621,152.508 83.73,152.273 84.773,152.273C85.531,152.273 86.145,153.372 86.567,153.86L119.614,190.635C120.029,191.118 120.294,191.396 120.438,191.396C120.574,191.396 120.642,191.194 120.642,190.635L120.642,161.69C120.642,152.607 112.961,155.246 112.961,152.953C112.961,152.47 113.302,152.273 113.719,152.273C115.8,152.273 117.798,152.508 120.029,152.508C122.36,152.508 125.341,152.273 127.005,152.273C127.42,152.273 127.695,152.47 127.695,152.89C127.695,154.691 123.613,153.433 123.613,158.492L123.613,198.607C123.613,200.621 123.54,201.588 122.989,201.588C122.509,201.588 121.82,201.232 120.375,199.648L90.571,166.101C90.432,165.962 89.608,164.79 89.123,164.79C88.838,164.79 88.638,164.987 88.638,166.378L88.638,194.657C88.638,200.888 94.723,198.471 94.723,200.335C94.723,200.671 94.66,201.232 93.966,201.232C92.301,201.232 90.361,200.992 86.981,200.992C84.556,200.992 80.964,201.232 80.482,201.232C79.641,201.232 79.577,200.808 79.577,200.464C79.577,198.052 85.67,201.096 85.67,191.416L85.67,165.909Z" style="fill:white;fill-rule:nonzero;"/>
        <path d="M155.751,158.212C155.688,153.155 150.146,154.542 150.146,153.036C150.146,152.405 150.285,152.271 150.838,152.271C153.402,152.271 155.888,152.509 158.444,152.509C160.576,152.509 162.736,152.271 164.87,152.271C165.997,152.271 166.201,152.405 166.201,152.953C166.201,154.61 161.207,153.036 161.207,158.212L161.207,195.352C161.207,200.058 167.368,198.471 167.368,200.533C167.368,201.03 167.164,201.232 165.997,201.232C164.398,201.232 161.415,200.992 158.444,200.992C154.228,200.992 152.773,201.232 151.808,201.232C150.566,201.232 150.353,200.889 150.353,200.192C150.353,198.183 155.751,200.464 155.751,193.627L155.751,158.212Z" style="fill:white;fill-rule:nonzero;"/>
        <path d="M189.038,157.63C187.298,153.467 183.703,154.788 183.703,153.255C183.703,152.628 184.039,152.277 184.671,152.277C186.815,152.277 188.965,152.495 191.036,152.495C192.911,152.495 195.525,152.277 196.503,152.277C196.909,152.277 197.475,152.558 197.475,152.982C197.546,153.96 194.633,154.038 194.633,156.521C194.633,157.486 194.984,158.597 195.252,159.224L207.367,187.755C208.88,191.42 209.38,193.014 210.145,193.014C210.82,193.014 211.042,191.908 211.388,191.079L223.43,161.373C223.851,160.328 224.675,158.117 224.395,156.657C224.395,153.467 219.966,154.788 219.966,153.179C219.966,152.495 220.307,152.277 221.002,152.277C222.515,152.277 224.043,152.495 225.554,152.495C228.896,152.495 229.926,152.277 230.891,152.277C231.659,152.277 232.079,152.558 232.079,153.179C232.079,154.725 230.131,152.982 228.191,157.63L210.969,198.415C210.204,200.137 209.719,202.426 208.68,202.426C207.579,202.426 206.74,199.526 206.129,198.076L189.038,157.63Z" style="fill:white;fill-rule:nonzero;"/>
        <path d="M327.844,176.175C332.702,174.24 336.579,169.598 336.579,164.202C336.579,150.875 321.264,152.272 320.158,152.272C316.538,152.272 312.587,152.509 308.584,152.509C305.055,152.509 305.406,152.272 304.158,152.272C303.325,152.272 302.779,152.671 302.779,153.08C302.779,155.424 308.733,152.598 308.733,159.223L308.733,194.431C308.733,199.695 303.676,198.712 303.676,200.452C303.676,200.872 303.959,201.223 304.358,201.223C307,201.223 309.634,201.001 312.261,201.001C318.003,201.001 319.589,201.223 320.218,201.223C320.777,201.223 321.385,201.362 321.385,200.67C321.385,198.293 314.171,200.452 314.171,194.489L314.171,179.924C314.171,179.219 313.772,177.986 315.987,177.986C323.757,177.986 322.714,177.769 325.205,181.652L332.906,193.743C335.541,197.681 338.244,201.223 343.293,201.223C343.907,201.223 347.789,201.223 347.789,200.379C347.789,198.712 344.402,201.281 339.426,193.665L327.844,176.175ZM314.171,157.076C314.171,154.378 315.641,154.517 318.124,154.517C324.927,154.517 331.391,157.364 331.391,165.796C331.391,174.379 324.717,175.632 321.749,175.632C318.483,175.632 314.171,175.968 314.171,174.66L314.171,157.076Z" style="fill:white;fill-rule:nonzero;"/>
        <path d="M361.178,188.938C360.915,187.552 361.256,186.781 361.943,186.781C362.938,186.781 362.938,187.617 363.299,189.077C364.128,192.257 368.281,199.467 377.831,199.467C384.465,199.467 390.936,195.791 390.936,188.529C390.936,175.194 362.708,182.659 362.708,164.611C362.708,155.82 370.107,151.566 378.114,151.566C386.549,151.566 388.832,154.082 389.822,154.082C390.446,154.082 390.585,153.317 391.275,153.317C391.679,153.317 392.017,153.534 392.098,154.304L393.121,163.704C393.187,164.264 393.048,164.739 392.369,164.739C391.616,164.739 391.136,163.294 390.936,162.663C388.832,156.722 383.752,153.673 377.632,153.673C372.118,153.673 366.28,156.303 366.28,162.663C366.28,175.667 394.49,168.058 394.49,187.157C394.49,192.965 390.446,201.692 374.636,201.692C369.476,201.692 363.178,199.115 362.913,197.863L361.178,188.938Z" style="fill:white;fill-rule:nonzero;"/>
        <path d="M420.928,158.212C420.852,153.155 415.313,154.542 415.313,153.036C415.313,152.405 415.462,152.271 416.018,152.271C418.574,152.271 421.067,152.509 423.616,152.509C425.753,152.509 427.905,152.271 430.044,152.271C431.158,152.271 431.373,152.405 431.373,152.953C431.373,154.61 426.384,153.036 426.384,158.212L426.384,195.352C426.384,200.058 432.545,198.471 432.545,200.533C432.545,201.03 432.343,201.232 431.158,201.232C429.557,201.232 426.596,200.992 423.616,200.992C419.397,200.992 417.945,201.232 416.988,201.232C415.73,201.232 415.522,200.889 415.522,200.192C415.522,198.183 420.928,200.464 420.928,193.627L420.928,158.212Z" style="fill:white;fill-rule:nonzero;"/>
        <path d="M468.656,159.248C468.656,158.745 468.936,156.131 467.963,156.06L456.672,156.06C452.365,156.06 452.227,157.091 450.974,160.9C450.751,161.587 450.711,162.489 449.802,162.489C449.385,162.489 449.099,161.996 449.099,161.65L449.87,154.951C449.951,154.123 449.87,152.271 451.12,152.271C456.528,152.271 461.868,152.509 470.795,152.509C483.319,152.509 489.687,152.271 491.071,152.271C492.68,152.271 493.029,152.67 493.112,154.264L493.451,159.791C493.516,160.481 493.597,161.319 492.68,161.319C490.101,161.319 493.867,156.06 486.787,156.06L476.87,156.06C473.771,156.06 474.114,155.78 474.114,159.45L474.114,194.726C474.114,200.533 479.719,198.252 479.719,200.399C479.719,200.606 479.788,201.233 479.09,201.233C477.433,201.233 475.498,200.99 473.49,200.99C465.746,200.99 464.435,201.233 464.01,201.233C463.384,201.233 463.177,201.03 463.177,200.336C463.177,198.671 468.656,199.363 468.656,195.208L468.656,159.248Z" style="fill:white;fill-rule:nonzero;"/>
        <path d="M511.526,156.619C509.727,153.648 506.327,154.482 506.327,153.307C506.327,152.825 506.744,152.271 507.229,152.271C509.096,152.271 510.422,152.494 515.115,152.494C517.404,152.494 519.263,152.271 519.978,152.271C520.45,152.271 521.278,152.337 521.278,152.968C521.278,154.138 518.04,154.201 518.04,156.214C518.04,157.318 518.856,158.435 519.263,159.041L527.657,172.396C528.207,173.229 528.621,173.639 529.028,173.639C529.377,173.639 529.786,173.156 530.344,172.252L537.473,160.708C537.96,159.943 538.922,158.776 538.922,156.899C538.922,153.512 533.734,154.961 533.734,153.307C533.734,152.405 534.424,152.271 535.197,152.271C536.849,152.271 538.581,152.494 540.249,152.494C542.254,152.494 544.26,152.271 546.265,152.271C546.685,152.271 547.023,152.746 547.023,153.092C547.023,153.86 545.849,154.138 545.369,154.418C543.497,155.527 542.593,157.462 541.484,159.185L531.802,174.26C530.68,175.978 530.129,176.344 530.129,177.375L530.129,194.316C530.129,200.336 535.805,198.391 535.805,200.533C535.805,201.159 535.197,201.233 534.224,201.233C533.181,201.233 529.185,200.99 526.623,200.99C523.504,200.99 521.011,201.233 520.389,201.233C519.753,201.233 519.341,201.159 519.341,200.399C519.341,198.469 524.683,200.27 524.683,195.352L524.683,178.607C524.683,177.296 523.65,175.92 523.079,175.089L511.526,156.619Z" style="fill:white;fill-rule:nonzero;"/>
        <path d="M259.043,172.046C259.043,174.413 258.904,174.413 261.667,174.413L269.127,174.413C276.29,174.413 274.459,168.858 276.091,168.858C276.626,168.858 276.833,169.623 276.833,170.177C276.833,172.609 276.705,174.961 276.705,177.206C276.705,179.002 276.833,180.803 276.833,182.647C276.833,183.269 276.563,183.552 276.091,183.552C273.974,183.552 276.29,177.472 270.516,177.472L260.296,177.472C258.838,177.472 259.043,178.646 259.043,179.677L259.043,192.393C259.043,196.457 258.48,198.129 264.294,198.129C280.221,198.129 282.565,191.001 283.474,191.001C283.962,191.001 284.04,191.705 284.04,191.849C284.04,194.315 282.229,196.737 280.557,198.528C278.362,200.976 276.833,200.847 273.82,200.847C268.574,200.847 263.335,200.463 258.076,200.607C255.312,200.67 252.407,200.847 249.639,200.847C249.025,200.847 248.608,200.711 248.608,200.168C248.745,199.349 249.439,199.475 251.644,198.392C253.438,197.563 253.592,195.623 253.592,192.393L253.592,160.803C253.592,157.665 253.592,154.334 249.848,153.768C249.29,153.634 247.767,153.5 247.767,152.727C247.767,152.169 248.191,151.891 250.21,151.891C263.244,151.891 266.851,152.101 269.748,152.101C271.137,152.101 277.457,151.891 279.592,151.891C280.153,151.891 280.299,152.588 280.299,153.432C280.299,161.133 279.314,161.679 278.902,161.679C277.238,161.679 278.362,158.355 277.238,156.771C275.477,154.404 268.298,154.824 265.54,154.824C258.904,154.824 259.043,154.556 259.043,159.194L259.043,172.046Z" style="fill:white;fill-rule:nonzero;"/>
        <path d="M300.542,121.122C337.75,121.122 363.573,96.887 363.573,59.354C363.573,24.816 337.406,0.266 303.363,0.266C269.134,0.266 242.161,25.483 242.161,60.202C242.161,95.384 264.291,121.122 300.542,121.122M298.362,5.795C330.912,5.795 351.448,35.332 351.448,65.691C351.448,96.554 331.912,116.07 307.529,116.07C274.481,116.07 254.286,86.212 254.286,55.347C254.286,28.984 270.316,5.795 298.362,5.795" style="fill:white;fill-rule:nonzero;"/>
        <path d="M429.204,57.977C440.599,53.473 449.69,42.601 449.69,29.974C449.69,-1.316 413.808,1.923 411.209,1.923C402.745,1.923 393.558,2.584 384.237,2.584C375.959,2.584 376.77,1.923 373.86,1.923C371.902,1.923 370.642,2.893 370.642,3.875C370.642,9.394 384.552,2.736 384.552,18.299L384.552,100.737C384.552,113.066 372.716,110.79 372.716,114.865C372.716,115.837 373.39,116.653 374.335,116.653C380.491,116.653 386.624,115.991 392.739,115.991C406.185,115.991 409.901,116.653 411.373,116.653C412.651,116.653 414.117,116.979 414.117,115.355C414.117,109.828 397.258,114.865 397.258,100.898L397.258,66.656C397.258,65.032 396.283,62.112 401.446,62.112C419.643,62.112 417.211,61.629 423.048,70.708L441.066,99.115C447.247,108.358 453.552,116.653 465.364,116.653C466.834,116.653 479.668,116.653 479.668,114.698C479.668,110.79 467.958,116.815 456.3,98.943L429.204,57.977ZM397.258,13.277C397.258,6.964 400.65,7.288 406.496,7.288C422.414,7.288 437.474,13.926 437.474,33.697C437.474,53.771 421.924,56.699 414.925,56.699C407.306,56.699 397.258,57.489 397.258,54.428L397.258,13.277Z" style="fill:white;fill-rule:nonzero;"/>
        <path d="M476.522,12.112C472.309,5.135 464.372,7.085 464.372,4.337C464.372,3.195 465.347,1.897 466.496,1.897C470.871,1.897 473.928,2.594 484.936,2.594C490.273,2.594 494.651,1.897 496.268,1.897C497.397,1.897 499.332,2.074 499.332,3.521C499.332,6.272 491.739,6.423 491.739,11.139C491.739,13.731 493.673,16.32 494.651,17.78L514.182,49.077C515.468,51.015 516.443,51.995 517.41,51.995C518.196,51.995 519.166,50.856 520.446,48.751L537.12,21.67C538.25,19.9 540.528,17.134 540.528,12.756C540.528,4.817 528.403,8.209 528.403,4.337C528.403,2.228 530.002,1.897 531.783,1.897C535.653,1.897 539.722,2.594 543.592,2.594C548.28,2.594 552.968,1.897 557.652,1.897C558.629,1.897 559.44,3.046 559.44,3.839C559.44,5.63 556.714,6.272 555.558,6.926C551.215,9.518 549.091,14.054 546.499,18.114L523.849,53.455C521.257,57.504 519.966,58.317 519.966,60.75L519.966,100.468C519.966,114.574 533.253,110.029 533.253,115.058C533.253,116.513 531.783,116.678 529.527,116.678C527.095,116.678 517.691,115.973 511.767,115.973C504.523,115.973 498.677,116.678 497.233,116.678C495.775,116.678 494.808,116.513 494.808,114.733C494.808,110.191 507.268,114.407 507.268,102.893L507.268,63.662C507.268,60.588 504.841,57.34 503.55,55.4L476.522,12.112Z" style="fill:white;fill-rule:nonzero;"/>
        <path d="M223.704,101.689C224.507,115.289 236.48,109.295 236.48,114.964C236.48,116.588 234.356,116.588 232.598,116.588C229.511,116.588 223.858,115.868 217.417,115.868C212.418,115.868 207.224,116.588 203.408,116.588C201.968,116.588 201.627,115.774 201.627,115.125C201.627,110.263 211.834,113.829 211.655,101.856L207.252,39.073C207.252,35.021 206.441,32.758 205.471,32.758C204.32,32.758 202.854,34.213 201.23,37.613L167.71,105.905C166.897,107.35 164.305,113.994 162.681,113.994C161.057,113.994 159.935,110.424 159.433,109.295L124.94,37.125C124.438,35.829 123.634,35.344 122.978,35.344C122.505,35.344 122.005,36.16 121.876,37.777L117.14,94.576C116.319,116.09 131.672,108.967 131.672,114.807C131.672,116.424 129.894,116.588 127.613,116.588C125.519,116.588 118.241,115.868 113.47,115.868C105.063,115.868 102.308,116.588 99.173,116.588C98.018,116.588 97.551,115.774 97.551,114.638C97.551,109.126 107.89,115.774 109.022,98.924C110.984,72.487 112.924,55.302 112.924,38.128C112.924,0.026 100.385,9.102 100.385,3.593C100.385,2.143 101.661,1.807 103.126,1.807C106.036,1.807 108.943,2.512 112.033,2.512C114.938,2.512 117.822,1.807 120.669,1.807C122.95,1.807 123.268,4.558 124.074,6.344L162.734,88.698C164.543,92.101 165.167,93.561 166.324,93.561C167.132,93.561 168.736,90.163 171.345,84.803L209.983,7.314C210.922,5.535 212.226,1.645 214.141,1.807C215.767,1.807 220.92,2.512 221.711,2.512C225.457,2.512 226.899,1.807 229.486,1.807C230.461,1.807 231.115,2.777 231.115,3.749C231.115,8.935 218.149,1.974 218.811,21.265L223.704,101.689Z" style="fill:white;fill-rule:nonzero;"/>
        <path d="M26.855,49.173C26.855,54.692 26.541,54.692 32.985,54.692L50.45,54.692C67.217,54.692 62.905,41.709 66.73,41.709C68.016,41.709 68.485,43.489 68.485,44.788C68.485,50.476 68.276,55.975 68.276,61.103C68.276,65.314 68.485,69.54 68.485,73.91C68.485,75.375 67.856,76.017 66.73,76.017C61.751,76.017 67.217,61.75 53.686,61.75L29.759,61.75C26.354,61.75 26.855,64.518 26.855,66.941L26.855,96.773C26.855,106.341 25.574,110.234 39.141,110.234C76.414,110.234 81.911,93.529 84.013,93.529C85.132,93.529 85.296,95.153 85.296,95.472C85.296,101.312 81.103,106.978 77.233,111.206C72.05,117.097 68.485,116.778 61.43,116.778C49.144,116.778 36.883,115.781 24.601,116.099C18.165,116.273 11.378,116.778 4.932,116.778C3.467,116.778 2.499,116.435 2.499,115.131C2.81,113.169 4.444,113.487 9.625,110.87C13.81,108.93 14.154,104.388 14.154,96.773L14.154,22.88C14.154,15.575 14.154,7.785 5.412,6.479C4.126,6.16 0.567,5.842 0.567,3.965C0.567,2.67 1.529,2.02 6.217,2.02C36.703,2.02 45.11,2.707 51.905,2.707C55.13,2.707 69.953,2.02 74.98,2.02C76.258,2.02 76.579,3.64 76.579,5.574C76.579,23.575 74.318,24.873 73.35,24.873C69.448,24.873 72.05,17.088 69.448,13.365C65.285,7.845 48.515,8.813 42.043,8.813C26.541,8.813 26.855,8.164 26.855,19.035L26.855,49.173Z" style="fill:white;fill-rule:nonzero;"/>
    </g>
</svg>
